
<svg version="1.1" id="Layer_1" xmlns="http://www.w3.org/2000/svg" xmlns:xlink="http://www.w3.org/1999/xlink" x="0px" y="0px"
	 viewBox="0 0 612 792" style="enable-background:new 0 0 612 792;" xml:space="preserve">




<g>
	<path id="st1" d="M281.983,302.277c-20.599-48.866-41.631-100.75-34.275-153.268c3.211-22.927,15.875-48.439,38.801-51.651
		c14.392-2.016,28.845,5.964,37.839,17.378c8.994,11.415,13.339,25.79,16.152,40.047c9.547,48.396,3.479,98.532-6.477,146.845"/>
	<path id="st1" d="M247.793,328.091c-40.603-34.113-82.966-70.714-100.348-120.815c-7.588-21.872-7.941-50.352,11.004-63.658
		c11.892-8.352,28.394-7.835,41.601-1.772c13.207,6.063,23.626,16.879,32.626,28.289c30.551,38.73,47.994,86.123,61.146,133.666"/>
	<path id="st1" d="M264.444,433.704c-27.69,43.075-56.227,88.989-55.623,141.556c0.264,22.948,9.915,50.418,33.092,58.413
		c14.548,5.019,30.487,0.343,41.261-8.83c10.774-9.172,17.155-22.209,21.942-35.457c16.251-44.969,16.656-94.948,12.817-143.985"/>
	<path id="st1" d="M232.671,401.363c-46.326,24.493-94.795,51.029-119.337,95.987c-10.714,19.627-14.856,47.21,2.882,64.161
		c11.134,10.64,28.192,13.647,42.593,10.568c14.401-3.079,26.562-11.367,37.341-20.534c36.59-31.115,60.836-73.431,80.685-116.805"
		/>
	<path id="st1" d="M363.919,319.912c33.525-41.089,69.512-83.975,119.357-102.077c21.76-7.902,50.232-8.665,63.809,10.086
		c8.523,11.771,8.243,28.279,2.371,41.571c-5.872,13.293-16.537,23.866-27.816,33.03c-38.286,31.105-85.423,49.229-132.772,63.064"
		/>
	<path id="st1" d="M325.096,301.797c11.119-51.852,23.613-106.425,59.735-145.251c15.769-16.949,40.766-30.602,61.396-20.097
		c12.95,6.594,20.223,21.416,21.053,35.925c0.83,14.508-3.846,28.78-9.71,42.076c-19.907,45.134-53.609,82.745-89.452,116.635"/>
	<path id="st1" d="M237.384,363.69c-52.852,4.353-108.706,8.179-156.32-15.169c-20.786-10.193-41.085-30.173-36.996-52.959
		c2.567-14.304,14.652-25.553,28.3-30.544c13.648-4.991,28.662-4.643,43.086-2.875c48.962,6.002,94.714,27.384,137.523,51.893"/>
	<path id="st1" d="M251.265,404.22c-45.063,27.957-93.038,56.813-146.061,57.725c-23.147,0.398-50.321-8.138-57.063-30.284
		c-4.233-13.902,1.399-29.422,11.274-40.084c9.875-10.662,23.398-17.193,37.044-22.191c46.319-16.967,96.788-18.781,146.063-16.47"
		/>
	<path id="st1" d="M383.516,401.363c50.536,16.074,103.647,33.779,138.804,73.481c15.348,17.332,26.523,43.531,14.074,63.05
		c-7.814,12.252-23.269,18.06-37.79,17.485c-14.521-0.575-28.274-6.607-40.942-13.728c-43-24.172-77.182-61.348-107.452-100.297"/>
	<path id="st1" d="M386.093,358.6c52.309-8.718,107.654-17.159,157.039,2.163c21.559,8.435,43.444,26.664,41.257,49.711
		c-1.373,14.467-12.484,26.679-25.671,32.784c-13.188,6.105-28.179,7.002-42.7,6.435c-49.291-1.924-96.657-19.441-141.35-40.319"/>
	<path id="st1" d="M359.903,431.418c28.54,44.696,58.016,92.293,59.617,145.299c0.699,23.14-7.483,50.422-29.541,57.452
		c-13.846,4.413-29.438-1.017-40.227-10.752s-17.495-23.173-22.671-36.752c-17.568-46.095-20.036-96.536-18.365-145.836"/>
	<circle id="st1" cx="311.55" cy="370.237" r="79.013"/>
</g>
</svg>
